<svg xmlns="http://www.w3.org/2000/svg" xmlns:xlink="http://www.w3.org/1999/xlink" width="330" zoomAndPan="magnify" viewBox="0 0 330 330" height="210" preserveAspectRatio="xMidYMid meet" version="1.0"><path fill="#ffffff" d="M 755.742188 392.601562 C 763.28125 392.582031 769.414062 398.703125 769.414062 406.253906 C 769.59375 413.78125 763.582031 420.042969 756.042969 420.203125 C 748.484375 420.367188 742.230469 414.382812 742.070312 406.835938 C 742.050781 406.632812 742.050781 406.453125 742.070312 406.253906 C 742.070312 398.703125 748.183594 392.601562 755.742188 392.601562 Z M 684.734375 392.601562 C 692.292969 392.582031 698.425781 398.703125 698.445312 406.253906 C 698.445312 413.800781 692.3125 419.902344 684.753906 419.902344 C 677.195312 419.902344 671.0625 413.78125 671.0625 406.253906 C 671.082031 398.703125 677.195312 392.601562 684.734375 392.601562 Z M 791.507812 387.460938 C 791.527344 387.460938 791.546875 387.460938 791.585938 387.460938 C 794.484375 387.363281 796.914062 389.628906 797.015625 392.519531 C 797.015625 392.582031 797.015625 392.640625 797.015625 392.722656 C 796.996094 395.613281 794.644531 397.960938 791.75 397.941406 C 788.875 397.941406 786.519531 395.59375 786.519531 392.722656 C 786.5 389.910156 788.691406 387.601562 791.507812 387.460938 Z M 791.6875 384.792969 C 787.34375 384.851562 783.847656 388.386719 783.867188 392.722656 C 783.765625 397.078125 787.226562 400.691406 791.585938 400.792969 C 795.949219 400.894531 799.570312 397.441406 799.667969 393.0625 C 799.667969 392.964844 799.667969 392.84375 799.667969 392.722656 C 799.691406 388.347656 796.152344 384.8125 791.789062 384.792969 C 791.75 384.792969 791.726562 384.792969 791.6875 384.792969 Z M 650.835938 380.234375 L 654.515625 383.847656 C 655.019531 384.351562 655.320312 385.035156 655.320312 385.734375 L 655.320312 389.710938 C 655.320312 391.175781 654.113281 392.359375 652.644531 392.359375 L 649.027344 392.359375 C 647.558594 392.359375 646.375 391.175781 646.375 389.710938 L 646.375 385.734375 C 646.375 385.035156 646.65625 384.351562 647.15625 383.847656 Z M 650.695312 377.585938 C 650.050781 377.605469 649.449219 377.886719 648.988281 378.328125 L 645.308594 381.960938 C 644.28125 382.964844 643.71875 384.3125 643.71875 385.734375 L 643.71875 389.710938 C 643.71875 392.640625 646.09375 395.011719 649.027344 395.011719 L 652.667969 395.011719 C 655.601562 395.011719 657.972656 392.640625 657.972656 389.710938 L 657.972656 385.734375 C 657.972656 384.3125 657.410156 382.964844 656.40625 381.960938 L 652.707031 378.328125 C 652.183594 377.804688 651.460938 377.546875 650.695312 377.585938 Z M 661.371094 370.761719 L 665.351562 370.761719 C 666.820312 370.761719 668.007812 371.945312 668.007812 373.410156 L 668.007812 377.042969 C 668.007812 378.507812 666.820312 379.691406 665.351562 379.691406 L 661.371094 379.691406 C 660.667969 379.691406 659.984375 379.414062 659.480469 378.910156 L 655.863281 375.238281 L 659.480469 371.542969 C 659.984375 371.039062 660.667969 370.761719 661.371094 370.761719 Z M 636.28125 370.761719 C 636.300781 370.761719 636.339844 370.761719 636.363281 370.761719 L 640.320312 370.761719 C 641.027344 370.761719 641.710938 371.039062 642.210938 371.5625 L 645.851562 375.238281 L 642.210938 378.910156 C 641.710938 379.414062 641.027344 379.691406 640.320312 379.691406 L 636.363281 379.691406 C 634.894531 379.691406 633.707031 378.507812 633.707031 377.042969 L 633.707031 373.410156 C 633.707031 371.984375 634.855469 370.800781 636.28125 370.761719 Z M 774.457031 370.417969 C 774.480469 370.417969 774.5 370.417969 774.519531 370.417969 C 777.414062 370.316406 779.867188 372.585938 779.945312 375.476562 C 779.945312 375.558594 779.96875 375.617188 779.945312 375.679688 C 780.066406 378.570312 777.796875 381 774.902344 381.097656 C 772.007812 381.199219 769.574219 378.929688 769.472656 376.039062 C 769.453125 375.917969 769.453125 375.796875 769.472656 375.679688 C 769.453125 372.886719 771.644531 370.558594 774.457031 370.417969 Z M 808.574219 370.417969 C 808.597656 370.417969 808.636719 370.417969 808.65625 370.417969 C 811.550781 370.316406 813.984375 372.585938 814.085938 375.476562 C 814.085938 375.558594 814.085938 375.617188 814.085938 375.679688 C 814.085938 378.570312 811.730469 380.917969 808.835938 380.917969 C 805.941406 380.917969 803.589844 378.570312 803.589844 375.679688 C 803.570312 372.886719 805.761719 370.558594 808.554688 370.417969 Z M 661.371094 368.109375 C 659.964844 368.109375 658.597656 368.671875 657.59375 369.695312 L 653.972656 373.371094 C 652.949219 374.394531 652.949219 376.058594 653.972656 377.105469 L 657.59375 380.777344 C 658.597656 381.78125 659.964844 382.34375 661.371094 382.363281 L 665.351562 382.363281 C 668.289062 382.34375 670.660156 379.972656 670.660156 377.042969 L 670.660156 373.410156 C 670.660156 370.480469 668.289062 368.109375 665.351562 368.109375 Z M 636.363281 368.109375 C 633.425781 368.109375 631.035156 370.480469 631.035156 373.410156 L 631.035156 377.042969 C 631.035156 379.972656 633.40625 382.34375 636.339844 382.363281 C 636.339844 382.363281 636.363281 382.363281 636.363281 382.363281 L 640.320312 382.363281 C 641.730469 382.363281 643.117188 381.78125 644.101562 380.777344 L 647.71875 377.105469 C 648.746094 376.058594 648.746094 374.394531 647.71875 373.371094 L 644.101562 369.695312 C 643.117188 368.671875 641.730469 368.109375 640.320312 368.109375 Z M 774.597656 367.769531 C 770.277344 367.828125 766.800781 371.363281 766.800781 375.679688 C 766.800781 380.035156 770.359375 383.566406 774.738281 383.546875 C 779.082031 383.546875 782.601562 380.015625 782.621094 375.679688 C 782.621094 371.320312 779.082031 367.769531 774.71875 367.769531 C 774.679688 367.769531 774.640625 367.769531 774.597656 367.769531 Z M 808.757812 367.769531 C 804.414062 367.808594 800.9375 371.34375 800.9375 375.679688 C 800.835938 380.035156 804.3125 383.648438 808.675781 383.726562 C 813.039062 383.828125 816.65625 380.375 816.738281 376.019531 C 816.757812 375.898438 816.757812 375.777344 816.738281 375.679688 C 816.757812 371.320312 813.21875 367.769531 808.855469 367.769531 C 808.816406 367.769531 808.796875 367.769531 808.757812 367.769531 Z M 648.96875 358.09375 C 648.988281 358.09375 649.007812 358.09375 649.027344 358.09375 L 652.644531 358.09375 C 654.132812 358.09375 655.320312 359.277344 655.320312 360.742188 L 655.320312 364.71875 C 655.320312 365.421875 655.039062 366.101562 654.515625 366.605469 L 650.835938 370.21875 L 647.15625 366.605469 C 646.65625 366.101562 646.375 365.421875 646.375 364.71875 L 646.375 360.742188 C 646.375 359.316406 647.519531 358.132812 648.96875 358.09375 Z M 649.027344 355.441406 C 646.09375 355.441406 643.71875 357.8125 643.699219 360.742188 L 643.699219 364.71875 C 643.699219 366.144531 644.28125 367.488281 645.289062 368.492188 L 648.96875 372.105469 C 650.011719 373.128906 651.679688 373.128906 652.707031 372.105469 L 656.386719 368.492188 C 657.410156 367.488281 657.972656 366.144531 657.972656 364.71875 L 657.972656 360.742188 C 657.972656 357.8125 655.582031 355.441406 652.644531 355.441406 Z M 791.507812 353.375 C 791.527344 353.375 791.566406 353.375 791.585938 353.375 C 794.484375 353.273438 796.914062 355.542969 797.015625 358.433594 C 797.015625 358.492188 797.015625 358.554688 797.015625 358.632812 C 797.015625 361.527344 794.664062 363.855469 791.75 363.855469 C 788.875 363.835938 786.519531 361.503906 786.519531 358.632812 C 786.5 355.824219 788.710938 353.515625 791.507812 353.375 Z M 791.6875 350.703125 C 787.34375 350.765625 783.847656 354.296875 783.867188 358.632812 C 783.765625 362.992188 787.226562 366.605469 791.585938 366.703125 C 795.96875 366.804688 799.570312 363.332031 799.667969 358.976562 C 799.667969 358.855469 799.667969 358.734375 799.667969 358.632812 C 799.691406 354.257812 796.152344 350.726562 791.789062 350.703125 C 791.769531 350.703125 791.726562 350.703125 791.6875 350.703125 Z M 773.03125 347.191406 C 773.535156 347.191406 773.957031 347.59375 773.957031 348.09375 C 773.976562 348.175781 773.957031 348.234375 773.9375 348.316406 L 772.832031 353.335938 C 772.710938 353.816406 772.207031 354.117188 771.703125 353.996094 C 771.222656 353.875 770.921875 353.414062 771.019531 352.914062 L 772.148438 347.914062 C 772.226562 347.492188 772.589844 347.210938 773.03125 347.191406 Z M 667.402344 347.191406 C 667.84375 347.171875 668.246094 347.472656 668.347656 347.914062 L 669.472656 352.914062 C 669.574219 353.414062 669.253906 353.917969 668.75 354.015625 C 668.265625 354.097656 667.785156 353.796875 667.664062 353.335938 L 666.539062 348.316406 C 666.4375 347.8125 666.757812 347.332031 667.261719 347.210938 C 667.300781 347.210938 667.34375 347.191406 667.402344 347.191406 Z M 667.523438 344.5625 C 665.53125 344.523438 663.90625 346.109375 663.882812 348.074219 C 663.863281 348.355469 663.90625 348.617188 663.964844 348.898438 L 665.070312 353.898438 C 665.511719 355.824219 667.441406 357.027344 669.371094 356.585938 C 671.28125 356.144531 672.488281 354.257812 672.085938 352.351562 L 670.960938 347.332031 C 670.578125 345.726562 669.171875 344.582031 667.523438 344.5625 Z M 772.851562 344.542969 C 771.261719 344.621094 769.914062 345.765625 769.554688 347.332031 L 768.425781 352.351562 C 768.085938 354.296875 769.371094 356.164062 771.300781 356.507812 C 773.152344 356.847656 774.941406 355.703125 775.421875 353.898438 L 776.53125 348.898438 C 776.972656 346.972656 775.746094 345.0625 773.816406 344.621094 C 773.492188 344.5625 773.171875 344.523438 772.851562 344.542969 Z M 773.113281 339.300781 C 773.414062 339.28125 773.714844 339.300781 774.015625 339.34375 C 784.8125 340.707031 795.546875 342.515625 806.222656 344.703125 C 817.984375 367.125 825.703125 391.457031 829.023438 416.550781 C 831.65625 431.929688 831.394531 447.648438 828.238281 462.925781 C 827.292969 470.632812 821.484375 476.855469 813.863281 478.363281 C 811.613281 476.597656 809.902344 474.226562 808.917969 471.515625 C 801.316406 438.933594 785.757812 408.742188 763.640625 383.609375 C 761.390625 381.058594 760.507812 377.605469 761.25 374.292969 L 768.144531 343.4375 C 768.667969 341.089844 770.699219 339.382812 773.132812 339.300781 Z M 666.941406 339.300781 C 669.515625 339.183594 671.804688 340.949219 672.347656 343.457031 L 679.246094 374.292969 C 679.988281 377.605469 679.105469 381.058594 676.871094 383.609375 C 654.757812 408.742188 639.195312 438.953125 631.578125 471.535156 C 630.613281 474.226562 628.902344 476.597656 626.632812 478.363281 C 619.011719 476.875 613.203125 470.632812 612.277344 462.925781 C 609.101562 447.648438 608.839844 431.929688 611.492188 416.550781 C 614.789062 391.457031 622.507812 367.125 634.289062 344.703125 C 644.945312 342.515625 655.703125 340.707031 666.5 339.34375 C 666.640625 339.324219 666.800781 339.300781 666.941406 339.300781 Z M 718.003906 335.929688 C 731.316406 335.847656 744.605469 336.410156 757.851562 337.597656 C 760.769531 337.855469 762.9375 340.425781 762.675781 343.359375 C 762.65625 343.578125 762.617188 343.800781 762.558594 344.019531 L 756.023438 373.308594 C 754.9375 378.167969 750.636719 381.621094 745.648438 381.621094 L 694.867188 381.621094 C 689.878906 381.621094 685.578125 378.167969 684.492188 373.308594 L 677.9375 344.019531 C 677.292969 341.167969 679.105469 338.339844 681.976562 337.695312 C 682.199219 337.636719 682.421875 337.617188 682.660156 337.597656 C 694.402344 336.550781 706.203125 335.988281 718.003906 335.929688 Z M 784.773438 331.371094 C 792.25 331.371094 799.46875 334.183594 804.976562 339.242188 L 804.976562 341.75 C 794.625 339.664062 784.1875 337.957031 773.714844 336.632812 L 773.714844 333.5 C 777.234375 332.09375 780.992188 331.371094 784.773438 331.371094 Z M 655.441406 331.371094 C 659.320312 331.332031 663.179688 332.054688 666.78125 333.5 L 666.78125 336.632812 C 656.304688 337.957031 645.890625 339.664062 635.539062 341.75 L 635.539062 339.242188 C 640.964844 334.242188 648.0625 331.433594 655.441406 331.371094 Z M 655.5625 328.703125 C 647.058594 328.742188 638.914062 332.117188 632.882812 338.097656 L 632.882812 342.292969 C 632.761719 342.3125 632.640625 342.332031 632.523438 342.375 C 620.277344 365.359375 612.277344 390.351562 608.878906 416.167969 C 606.183594 431.808594 606.445312 447.828125 609.644531 463.367188 C 611.089844 474.648438 621.445312 482.636719 632.742188 481.191406 C 636.402344 480.730469 639.878906 479.285156 642.796875 477.015625 C 644.0625 476.035156 645.085938 474.769531 645.8125 473.324219 C 649.066406 466.679688 651.640625 459.710938 653.449219 452.546875 C 655.480469 442.667969 661.8125 434.238281 670.738281 429.519531 C 703.730469 431.347656 736.78125 431.347656 769.753906 429.519531 C 778.679688 434.21875 785.035156 442.667969 787.0625 452.546875 C 788.875 459.710938 791.445312 466.679688 794.703125 473.324219 C 795.40625 474.769531 796.433594 476.035156 797.71875 477.015625 C 806.707031 484.003906 819.695312 482.398438 826.691406 473.402344 C 828.960938 470.492188 830.410156 467.019531 830.871094 463.367188 C 834.066406 447.828125 834.328125 431.808594 831.65625 416.167969 C 828.238281 390.351562 820.214844 365.359375 807.972656 342.375 C 807.871094 342.332031 807.730469 342.3125 807.632812 342.292969 L 807.632812 338.097656 C 797.980469 328.542969 783.386719 326.011719 771.0625 331.753906 L 771.0625 336.289062 C 737.324219 332.257812 703.1875 332.257812 669.453125 336.289062 L 669.453125 331.753906 C 665.089844 329.726562 660.347656 328.683594 655.5625 328.703125 " fill-opacity="1" fill-rule="nonzero"/></svg>